<?xml version="1.0" encoding="UTF-8" standalone="no"?>
<svg
   version="1.1"
   width="500"
   height="500"
   viewBox="0 0 500 500"
   id="svg1"
   sodipodi:docname="logo.svg"
   inkscape:version="1.3 (0e150ed6c4, 2023-07-21)"
   xmlns:inkscape="http://www.inkscape.org/namespaces/inkscape"
   xmlns:sodipodi="http://sodipodi.sourceforge.net/DTD/sodipodi-0.dtd"
   xmlns="http://www.w3.org/2000/svg"
   xmlns:svg="http://www.w3.org/2000/svg">
  <defs
     id="defs1" />
  <sodipodi:namedview
     id="namedview1"
     pagecolor="#ffffff"
     bordercolor="#000000"
     borderopacity="0.25"
     inkscape:showpageshadow="2"
     inkscape:pageopacity="0.0"
     inkscape:pagecheckerboard="0"
     inkscape:deskcolor="#d1d1d1"
     inkscape:zoom="1.176"
     inkscape:cx="250"
     inkscape:cy="244.04762"
     inkscape:window-width="1536"
     inkscape:window-height="792"
     inkscape:window-x="0"
     inkscape:window-y="0"
     inkscape:window-maximized="1"
     inkscape:current-layer="svg1" />
  <rect
     style="fill:#223344;fill-opacity:1;stroke:none;"
     id="rect1"
     width="500"
     height="500"
     x="0"
     y="0" />
  <path
     d="m 423.93697,338.9897 -3.86487,-2.06913 -1.86594,-0.96916 -1.9319,-1.03404 -1.79573,-1.03934 -1.86594,-1.0351 -1.79469,-0.96809 -1.79572,-1.03403 -1.7287,-1.03509 -1.72447,-1.03936 -1.7287,-1.03404 -1.72446,-1.03509 -1.72872,-1.03831 -1.65743,-1.03509 -1.65425,-1.10531 -1.6585,-1.03511 -1.65743,-1.10531 -1.58723,-1.1053 -1.59149,-1.03511 -1.65849,-1.1053 -1.58722,-1.17551 -1.58722,-1.10534 -1.59254,-1.10105 -1.58723,-1.17658 -1.51595,-1.17552 -1.58829,-1.17235 -1.59147,-1.24255 -1.51701,-1.17551 -1.5915,-1.24255 -1.58721,-1.24255 -1.52124,-1.24253 -1.58726,-1.31384 2.55639,-0.48191 2.48508,-0.55211 2.55531,-0.69041 2.48934,-0.69363 2.48509,-0.82658 2.41807,-0.96915 2.41488,-0.96808 2.41806,-1.03403 2.34785,-1.17232 2.34787,-1.24682 2.34785,-1.24253 2.28191,-1.37979 2.20637,-1.37872 2.14466,-1.45105 2.13934,-1.52019 2.14041,-1.58829 4.00638,-3.31595 1.93613,-1.7287 1.8617,-1.72447 1.79467,-1.79466 1.79572,-1.86593 1.65852,-1.86596 1.65742,-1.93297 1.52128,-1.9319 1.51701,-1.93617 1.38298,-2.00314 1.31381,-2.00319 1.24255,-2.00319 1.17126,-2.06914 1.10531,-2.00318 0.96809,-2.07338 v -0.1373 l -0.20745,-0.20744 0.20745,-0.13729 0.96487,8.01164 0.62341,7.11485 0.34467,6.69785 0.1373,6.56164 -0.0671,6.90739 -0.27767,7.5255 -0.41168,8.56483 -0.55319,9.94355 15.88286,-5.45635 0.20745,-3.66061 0.0713,-4.90317 0.0661,-6.07548 -0.13729,-7.04465 -0.20745,-7.66695 -0.34467,-8.08187 -0.48191,-8.35739 -0.69469,-8.42335 -0.89254,-8.21909 -1.03934,-7.8042 -1.31276,-7.18079 -1.51703,-6.35424 -1.7287,-5.25208 -2.07019,-4.00211 -2.28084,-2.48933 -2.62233,-0.76064 -3.59463,0.27872 -3.51915,0.48192 -3.52444,0.62339 -3.52018,0.76064 -3.52339,0.89787 -3.45316,1.03404 -3.45316,1.24252 -3.38299,1.31385 -3.38615,1.44997 -3.31699,1.58724 -3.24465,1.7287 -3.1755,1.79573 -3.17871,1.93192 -3.03828,2.00317 -3.0372,2.14042 -2.97126,2.21061 -2.82979,2.28084 -2.76381,2.34785 -2.76274,2.41488 -2.55636,2.48935 -2.5553,2.55531 -2.41489,2.62232 -2.28082,2.69252 -2.21064,2.69254 -2.14041,2.69678 -1.93189,2.83086 -1.86595,2.76272 -1.72446,2.82975 -1.59253,2.83511 -1.51594,2.82977 -1.31384,2.89997 -1.17551,2.82979 -1.99894,-2.48509 -2.07339,-2.55531 -2.00319,-2.55531 -2.07339,-2.55637 -2.07019,-2.62124 -2.07338,-2.62658 -2.06914,-2.62233 -2.07338,-2.62658 -2.07446,-2.69253 -2.13935,-2.69254 -2.14043,-2.7638 -2.14039,-2.69254 -2.13936,-2.76381 -2.21167,-2.82978 -2.21064,-2.83402 -2.28083,-2.82974 2.41808,-1.79574 2.5553,-1.86596 2.62657,-1.86595 2.75955,-1.9319 2.76382,-2.0734 2.89999,-2.06912 2.82976,-2.14041 2.9053,-2.14466 2.82976,-2.2766 2.90105,-2.27764 2.82979,-2.35211 2.69678,-2.48509 2.69253,-2.41806 2.62231,-2.55637 2.48933,-2.55106 2.3479,-2.69678 2.2106,-2.69359 2.06914,-2.7585 1.86595,-2.7638 1.72445,-2.90107 1.45105,-2.89998 1.24574,-2.97125 1.0351,-3.03829 0.76062,-3.1074 0.4117,-3.10851 0.20745,-3.17976 -0.13729,-3.24466 -0.48193,-3.31699 -0.83085,-3.31168 -1.24252,-3.38295 -1.52128,-3.45744 -1.99892,-3.51912 -1.03829,-1.37977 -1.37978,-1.24679 -1.6585,-1.17128 -1.86594,-1.03935 -2.21063,-0.96384 -2.41382,-0.83084 -2.69784,-0.76064 -2.82978,-0.61913 -3.0372,-0.55319 -3.24573,-0.41597 -3.4532,-0.34468 -3.52445,-0.27446 -3.72763,-0.14048 -3.79785,-0.0671 -3.86912,0.0671 -4.00531,0.0701 -4.07654,0.27448 -4.07233,0.27871 -4.21378,0.41492 -4.1436,0.4819 -4.14254,0.55318 -4.2138,0.6234 -4.14357,0.68936 -4.07658,0.82767 -4.07657,0.8968 -3.93508,0.89785 -3.86911,1.03935 -3.79786,1.10533 -3.59041,1.17126 -3.52018,1.24255 -3.38614,1.31382 -3.17552,1.38297 -2.07337,23.47963 2.14038,-1.72446 2.00319,-1.59148 1.93616,-1.45105 1.86167,-1.24254 1.79895,-1.17127 1.72445,-1.03936 1.65849,-0.96382 1.6585,-0.89786 3.17445,-1.52127 1.65851,-0.62234 1.58721,-0.62021 1.59147,-0.62235 1.72448,-0.55318 1.65848,-0.55212 1.79468,-0.54894 -0.8266,59.46131 -11.95205,2.21169 0.5532,11.39355 0.55213,10.2893 0.41595,9.25525 0.34468,8.29036 0.13727,7.45846 v 6.62869 l -0.27444,5.80102 -0.55214,5.18188 -0.83086,4.55849 -1.1021,3.93506 -1.5202,3.45318 -1.86594,3.03827 -2.34787,2.62657 -2.76381,2.34787 -3.31168,2.06913 -3.80209,1.93616 -3.86488,1.24255 -3.24572,-0.0702 -2.62658,-1.30956 -2.07339,-2.35212 -1.58722,-3.31169 -1.17233,-4.28401 -0.76063,-5.11165 -0.34467,-5.86806 -0.13729,-6.56061 0.13729,-7.04463 0.27445,-7.59567 0.48617,-7.94572 0.55318,-8.28611 0.55213,-8.49355 0.5532,-8.6361 0.48191,-8.63081 -15.26375,3.03827 -0.0702,1.72448 -0.55316,4.76592 -0.82661,7.18505 -0.89788,8.97653 -0.96806,10.15207 -0.68936,10.84568 -0.34573,10.70418 0.20851,10.15206 -2.28189,2.41487 -2.21064,1.86596 -2.00317,1.38404 -1.93191,0.89678 -1.86596,0.4819 -1.65424,0.1373 -1.59148,-0.27341 -1.44998,-0.6234 -1.37978,-0.89787 -1.17659,-1.17233 -1.17127,-1.38402 -0.96808,-1.65747 -0.89787,-1.79572 -0.76064,-1.9319 -0.68934,-2.07339 -0.5532,-2.14039 -1.5872,-8.22018 -1.03938,-8.35632 -0.41063,-8.63079 0.0661,-8.98078 0.69044,-9.39144 1.17551,-9.80738 1.72871,-10.42546 2.27765,-11.12014 0.20743,-0.0712 0.3447,-0.13729 0.4819,-0.0702 0.69467,-0.13728 0.7564,-0.13729 0.89679,-0.13729 1.03937,-0.14149 1.10528,-0.13727 1.17237,-0.1373 1.24252,-0.13613 1.31277,-0.14149 1.37976,-0.0671 1.38403,-0.0703 1.45001,-0.0713 1.37976,-0.0661 h 1.45001 l 2.48934,-15.05519 -14.50737,3.1074 0.90214,-3.86805 0.96384,-3.66168 1.03934,-3.59039 1.03402,-3.45319 1.10533,-3.45316 1.17232,-3.45317 1.24255,-3.52338 1.2468,-3.66168 -18.7871,8.35739 -6.56167,24.58814 -15.19351,5.17763 -1.45,11.8148 1.10531,-0.41594 1.0351,-0.34468 0.96808,-0.34468 0.89788,-0.27873 0.89679,-0.34467 0.82765,-0.20852 0.83086,-0.27445 0.82658,-0.27766 0.76063,-0.20851 0.76065,-0.2032 0.75635,-0.20744 0.76064,-0.20851 0.76064,-0.27765 0.83085,-0.20851 0.75638,-0.2032 0.83085,-0.2787 -0.27875,0.82764 -0.48189,2.21064 -0.68937,3.45315 -0.76063,4.62869 -0.8266,5.80208 -0.76062,6.76485 -0.69469,7.80846 -0.54784,8.70101 -0.96811,-2.28085 -1.24253,-2.21063 -1.52126,-2.20633 -1.6585,-2.14468 -1.86488,-2.14041 -2.14042,-2.06911 -2.20635,-2.07341 -2.41914,-2.07447 -2.48509,-2.00212 -2.69679,-2.00319 -2.76381,-1.93295 -2.82976,-1.93189 -2.89999,-1.93616 -2.967,-1.86169 -3.0425,-1.86589 -3.03724,-1.86596 -3.03828,-1.79573 -3.04147,-1.79465 -3.03722,-1.79575 -2.96804,-1.79467 -2.89999,-1.72872 -2.83403,-1.72446 -2.76381,-1.7287 -2.69254,-1.72445 -2.48509,-1.6585 -2.41806,-1.6585 -2.27765,-1.65743 -2.07339,-1.65851 -1.86594,-1.65744 -1.72446,-1.58722 -1.45105,-1.6585 -1.24254,-1.58721 -1.10532,-1.79575 -0.83084,-1.72446 -0.55212,-1.7287 -0.27447,-1.65744 v -1.58829 l 0.20744,-1.59148 0.41596,-1.51594 0.54787,-1.37978 0.83191,-1.38402 0.96808,-1.24257 1.10531,-1.24253 1.24254,-1.10533 1.37978,-0.96806 1.44999,-0.89787 1.58722,-0.82658 1.6585,-0.69044 1.72872,-0.55212 1.72445,-0.48616 1.86594,-0.27448 1.79467,-0.20849 1.86594,-0.0702 1.79575,0.13727 1.79466,0.20746 1.72871,0.41596 1.72445,0.55212 1.65851,0.76064 1.51701,0.89785 1.44999,1.10533 1.31275,1.24253 1.24254,1.44998 1.03937,1.65852 0.89785,1.86593 18.92009,-8.29036 -1.93296,-3.31592 -2.21061,-3.03829 -2.34788,-2.76275 -2.62231,-2.41488 -2.69255,-2.14467 -2.90103,-1.86168 -2.9702,-1.58723 -3.10849,-1.31275 -3.17976,-1.03511 -3.24466,-0.76064 -3.31275,-0.48615 -3.31592,-0.27339 h -3.31595 l -3.31593,0.27339 -3.31274,0.48615 -3.1787,0.69043 -3.17445,0.96384 -3.10849,1.17552 -2.97125,1.3138 -2.829773,1.58724 -2.763812,1.79572 -2.48509,2.00211 -2.347857,2.2117 -2.143602,2.34786 -1.932966,2.55531 -1.72871,2.69254 -1.379779,2.90102 -1.171268,3.03722 -0.831911,3.24997 -0.552124,3.38297 -0.137228,3.52338 0.137228,3.65741 0.552124,2.97126 0.969143,2.97021 1.449992,2.83083 1.794666,2.76274 2.140412,2.7638 2.485089,2.62232 2.763812,2.62659 3.041469,2.55531 3.311685,2.5553 3.45316,2.55635 3.66168,2.48403 3.79785,2.41914 3.86912,2.48508 4.00529,2.41381 3.93614,2.48936 4.07657,2.41913 7.87016,4.97017 3.86914,2.48828 3.73186,2.55212 3.59041,2.55529 3.45316,2.6266 3.17446,2.69253 2.97126,2.69253 2.69253,2.83083 2.34786,2.83403 2.00318,2.89999 1.72871,3.03828 1.24255,3.04145 0.82764,3.24574 0.34468,3.24572 -0.13728,3.3819 -0.55318,3.59037 -0.8968,3.25 -1.1766,3.03719 -1.37976,2.76383 -1.65745,2.5553 -1.93296,2.27764 -2.13934,2.07338 -2.34891,1.79575 -2.55533,1.58723 -2.69252,1.31274 -2.90533,1.17234 -3.03719,0.89788 -3.24573,0.76061 -3.31593,0.55212 -3.38294,0.27874 -3.5904,0.20318 -3.59467,-0.0661 -3.72657,-0.20851 -3.72764,-0.34465 -3.7989,-0.55215 -3.80211,-0.69041 -3.86486,-0.89788 -3.86806,-0.96807 -3.79891,-1.17553 -3.797847,-1.30955 -3.797847,-1.38299 -3.73189,-1.51701 -3.661676,-1.65849 -3.519127,-1.79466 -3.45317,-1.86596 -3.382955,-2.00317 -3.249978,-2.0734 -20.856244,20.09988 7.874415,3.52021 7.666972,3.10847 7.38931,2.76275 7.113784,2.34786 6.836125,2.07446 6.631869,1.72448 6.354219,1.44998 6.1457,1.1053 5.8723,0.82659 5.59357,0.55318 5.38508,0.27873 5.17763,0.0661 4.90423,-0.2032 4.62867,-0.48616 4.42126,-0.61915 4.20951,-0.89788 4.00639,-1.03933 3.73189,-1.17129 3.52337,-1.384 3.31274,-1.58724 3.03721,-1.65849 2.90106,-1.79469 2.6255,-1.93296 2.41913,-2.00213 2.20639,-2.1404 2.00316,-2.21062 1.79894,-2.28191 1.51698,-2.27657 1.38405,-2.34785 1.17128,-2.41914 0.96913,-2.34783 0.75957,-2.41809 1.0351,3.38615 1.17661,3.10848 1.30849,2.967 1.52126,2.62658 1.65745,2.34788 1.86594,2.07336 2.00317,1.65427 2.20638,1.2468 2.41912,0.82658 2.62551,0.34468 2.83084,-0.20746 3.03723,-0.68935 3.2457,-1.24256 3.52339,-1.93296 3.72764,-2.55529 3.93934,-3.17871 1.31381,3.45317 1.44998,3.10743 1.58723,2.83084 1.65852,2.48828 1.72443,2.14039 1.79467,1.93298 1.93723,1.5915 1.9319,1.30848 2.00317,1.10531 2.14042,0.83191 2.07339,0.55214 2.21063,0.41169 2.1404,0.14148 2.21064,-0.0712 2.27658,-0.20744 2.21167,-0.4819 2.27659,-0.55321 2.21063,-0.76063 2.28189,-0.89679 2.20637,-1.10534 2.14467,-1.17656 2.13934,-1.24256 2.14041,-1.45 2.0734,-1.44996 2.00318,-1.58831 1.93297,-1.65742 1.93191,-1.72447 1.79464,-1.72872 1.72978,-1.86592 1.58724,-1.79574 1.52019,-1.8617 1.45106,-1.86593 1.31276,16.64349 21.61686,-1.37977 -1.24678,-10.70418 -0.96383,-9.46271 -0.76063,-8.70208 -0.6234,-8.14886 -0.54786,-8.01164 -0.48617,-8.1489 -0.48193,-8.77228 -0.55317,-9.53291 3.1755,4.55848 6.49039,8.84248 3.24996,4.35104 3.31168,4.28082 3.31594,4.2138 3.31593,4.14253 3.38298,4.07658 3.3872,3.93506 3.38189,3.93616 3.38295,3.86807 3.38721,3.72762 3.3819,3.66168 3.31701,3.5904 3.38187,3.52337 3.31595,3.38296 3.38294,3.31595 3.24576,3.24571 3.31593,3.1085 3.2457,3.04147 3.24999,2.967 3.17445,2.83402 3.10849,2.75955 3.1085,2.62659 3.03719,2.55529 3.03827,2.41807 2.89999,2.34786 2.90105,2.20743 2.83403,2.07339 2.75953,2.00318 2.69682,1.86594 2.62231,1.72446 z m 0.41596,-105.11525 -3.52019,0.13728 -3.45316,0.41597 -3.38723,0.61916 -3.31167,0.96807 -3.31593,1.17551 -3.17871,1.37978 -3.10423,1.58723 -3.10849,1.72871 -2.9053,1.93296 -2.89573,2.00318 -2.7638,2.21063 -2.62659,2.28084 -2.5553,2.27763 -2.41487,2.41488 -2.34787,2.48828 -2.14358,2.41914 -2.07023,2.48508 -1.86592,2.48509 -1.7287,2.41806 -1.58726,2.34788 -1.44998,2.27763 -1.31274,2.21063 -1.10213,2.0734 -0.90107,1.93295 -0.75635,1.79469 -0.55321,1.65849 -0.34465,1.38297 -0.1415,1.24253 0.0715,1.03512 0.27764,0.68934 0.48297,0.48297 0.68936,0.20746 h 3.31594 l 3.24573,-0.34468 3.2457,-0.55319 3.17445,-0.89786 3.17871,-1.10531 3.1085,-1.37978 3.03828,-1.52021 3.03722,-1.72446 2.9053,-1.93722 2.82976,-2.00211 2.76379,-2.20743 2.69257,-2.28083 2.55528,-2.34787 2.4851,-2.41913 2.34785,-2.48509 2.21062,-2.55531 2.07341,-2.48508 2.00316,-2.48935 1.79573,-2.4851 1.65319,-2.34783 1.52125,-2.34786 1.38404,-2.27658 1.17127,-2.07445 0.96916,-2.00212 0.82658,-1.79572 0.62342,-1.65852 0.41168,-1.44998 0.20744,-1.24255 -0.0671,-0.96808 -0.20744,-0.75638 -0.48192,-0.48618 z m -72.65592,-60.70811 -0.48189,-1.79572 -0.6234,-1.58724 -0.82765,-1.52127 -1.03404,-1.31276 -1.17659,-1.24253 -1.37977,-1.10533 -1.44998,-0.96381 -1.58723,-0.89787 -1.72871,-0.76063 -1.86596,-0.62342 -1.86167,-0.55211 -2.0032,-0.48191 -2.07339,-0.41596 -2.06914,-0.34467 -2.14466,-0.2085 -2.21062,-0.20746 -2.14041,-0.0661 -2.21062,-0.0712 -2.14042,-0.0701 -2.21063,0.0701 -2.06914,0.0712 -2.07337,0.0661 -2.00319,0.1415 -1.93296,0.13728 -1.86488,0.13729 -1.72553,0.20743 -1.65743,0.1373 -1.52127,0.13727 -1.37977,0.20746 -1.24255,0.14149 -1.03828,0.13727 -0.89785,0.0661 0.27869,14.36585 0.13729,13.95416 0.13728,13.87971 0.27767,14.29566 1.51701,-0.48193 1.6585,-0.62341 1.79466,-0.75637 1.86596,-0.83086 1.9319,-0.89785 2.00316,-1.03509 2.07339,-1.17553 2.14041,-1.17235 4.42126,-2.62655 2.21168,-1.45 2.27658,-1.44999 2.21062,-1.58724 2.21063,-1.52127 2.2117,-1.65849 2.13934,-1.58722 2.07021,-1.65743 2.0021,-1.72445 2.00316,-1.65851 1.86596,-1.7287 1.72447,-1.65425 1.65849,-1.72873 1.52125,-1.65743 1.38299,-1.65851 1.24254,-1.5872 1.10531,-1.58722 0.89786,-1.59149 0.75638,-1.44679 0.55639,-1.44999 0.34148,-1.38404 0.14147,-1.31276 -0.14147,-1.24253"
     style="fill:#ffcc00;fill-opacity:1;fill-rule:evenodd;stroke:none;stroke-width:1.06382"
     id="path2256" />
</svg>
