<?xml version="1.0" encoding="UTF-8" standalone="no"?>
<svg
   version="1.1"
   width="16"
   height="16"
   viewBox="0 0 16 16"
   id="svg1"
   sodipodi:docname="favicon-safari-pinned-tab.svg"
   inkscape:version="1.3 (0e150ed6c4, 2023-07-21)"
   xmlns:inkscape="http://www.inkscape.org/namespaces/inkscape"
   xmlns:sodipodi="http://sodipodi.sourceforge.net/DTD/sodipodi-0.dtd"
   xmlns="http://www.w3.org/2000/svg"
   xmlns:svg="http://www.w3.org/2000/svg">
  <defs
     id="defs1" />
  <sodipodi:namedview
     id="namedview1"
     pagecolor="#ffffff"
     bordercolor="#000000"
     borderopacity="0.25"
     inkscape:showpageshadow="2"
     inkscape:pageopacity="0.0"
     inkscape:pagecheckerboard="0"
     inkscape:deskcolor="#d1d1d1"
     inkscape:zoom="28.541327"
     inkscape:cx="4.6073541"
     inkscape:cy="8.7942651"
     inkscape:window-width="1536"
     inkscape:window-height="792"
     inkscape:window-x="0"
     inkscape:window-y="0"
     inkscape:window-maximized="1"
     inkscape:current-layer="svg1" />
  <path
     d="m 14.688555,11.421365 -0.148619,-0.07957 -0.07175,-0.03727 -0.07429,-0.03978 -0.06905,-0.04001 -0.07175,-0.03978 -0.06902,-0.03719 -0.06905,-0.03978 -0.06648,-0.03978 -0.06632,-0.04001 -0.06648,-0.03978 -0.06632,-0.03978 -0.06648,-0.03993 -0.06374,-0.03978 -0.06362,-0.0425 -0.06378,-0.03978 -0.06374,-0.04251 -0.06104,-0.04251 -0.0612,-0.03978 -0.06378,-0.04251 -0.06104,-0.04525 -0.06104,-0.0425 -0.06124,-0.04236 -0.06104,-0.04524 -0.05829,-0.04525 -0.06108,-0.04509 -0.0612,-0.04775 -0.05834,-0.04524 -0.0612,-0.04775 -0.06104,-0.04776 -0.0585,-0.04775 -0.06104,-0.05056 0.0983,-0.01852 0.09556,-0.02125 0.09826,-0.02657 0.09572,-0.02664 0.09556,-0.03181 0.09298,-0.03727 0.09286,-0.03719 0.09298,-0.03978 0.09028,-0.045093 0.09029,-0.047972 0.09028,-0.04775 0.08775,-0.053064 0.08485,-0.05299 0.08247,-0.055795 0.08227,-0.058452 0.08231,-0.061109 0.154061,-0.127509 0.07445,-0.066496 0.07159,-0.066275 0.06902,-0.069006 0.06905,-0.071736 0.06378,-0.071736 0.06374,-0.074334 0.0585,-0.074283 0.05834,-0.07446 0.05319,-0.07702 0.05052,-0.077035 0.04779,-0.077028 0.04503,-0.079567 0.04251,-0.077028 0.03722,-0.079729 v -0.00517 l -0.008,-0.00797 0.008,-0.00517 0.0371,0.3080824 0.02397,0.2735868 0.01325,0.2575569 0.0054,0.2523243 -0.0026,0.2656087 -0.01068,0.2893879 -0.01583,0.3293431 -0.02127,0.382365 0.610755,-0.209813 0.008,-0.140764 0.0027,-0.188544 0.0025,-0.2336221 -0.0054,-0.2708928 -0.008,-0.2948273 -0.01325,-0.310776 -0.01853,-0.3213741 -0.02672,-0.3239057 -0.03432,-0.316053 -0.03997,-0.3001042 -0.05049,-0.2761257 -0.05834,-0.2443461 -0.06648,-0.2019613 -0.07961,-0.1538936 -0.08771,-0.095722 -0.10084,-0.029226 -0.138227,0.010701 -0.135324,0.018524 -0.135528,0.023985 -0.135363,0.029226 -0.135488,0.03454 -0.132787,0.03978 -0.132786,0.04775 -0.130089,0.050481 -0.13021,0.055795 -0.12755,0.061035 -0.124769,0.066496 -0.12211,0.06908 -0.122233,0.07429 -0.116833,0.077028 -0.116791,0.082305 -0.114255,0.085006 -0.108817,0.087707 -0.106279,0.090282 -0.106236,0.092866 -0.0983,0.095722 -0.09826,0.098261 -0.09286,0.1008368 -0.08771,0.1035378 -0.08501,0.1035379 -0.08231,0.1037003 -0.07429,0.1088592 -0.07175,0.1062316 -0.06632,0.1088149 -0.06124,0.1090214 -0.05829,0.1088148 -0.05053,0.111516 -0.0452,0.1088147 -0.07687,-0.09556 -0.07973,-0.098261 -0.07703,-0.098262 -0.07973,-0.098298 -0.07961,-0.1008004 -0.07973,-0.1009986 -0.0795,-0.1007974 -0.07973,-0.1009996 -0.07977,-0.1035379 -0.08227,-0.1035379 -0.08231,-0.1062759 -0.08231,-0.1035379 -0.08227,-0.1062834 -0.08505,-0.1088148 -0.08501,-0.1089772 -0.08771,-0.1088148 0.09298,-0.06908 0.09826,-0.071736 0.101002,-0.071736 0.106115,-0.074283 0.106278,-0.079736 0.111517,-0.079559 0.108814,-0.082313 0.11172,-0.082467 0.108814,-0.087545 0.111555,-0.087582 0.108816,-0.090445 0.103702,-0.09556 0.103537,-0.092984 0.10084,-0.098305 0.09572,-0.098099 0.09029,-0.1037002 0.08501,-0.1035748 0.07957,-0.1060767 0.07175,-0.1062759 0.06632,-0.1115603 0.0558,-0.1115159 0.04791,-0.114254 0.0398,-0.1168298 0.02924,-0.1194941 0.01583,-0.119531 0.008,-0.1222763 -0.0054,-0.124771 L 12.585027,4.7422849 12.553087,4.6149382 12.505307,4.484846 12.446807,4.3518978 12.369937,4.216573 12.330007,4.163509 12.276957,4.115537 12.213177,4.070518 12.141427,4.030517 12.056417,3.993468 11.963597,3.961512 11.859856,3.932286 11.75104,3.908447 11.634249,3.887192 11.509438,3.871176 11.37665,3.857891 11.241122,3.847337 11.097782,3.842167 10.95174,3.839947 10.802958,3.842167 10.64894,3.845117 10.492181,3.85567 10.335586,3.866371 10.17355,3.882313 10.014213,3.900837 9.8549173,3.922092 9.6928816,3.946078 9.5335459,3.972573 9.3767866,4.004382 9.2200274,4.038848 9.0687096,4.073388 8.9199276,4.113389 8.7738859,4.1559 8.6358216,4.200919 8.5004578,4.248669 8.3702483,4.299223 8.2481372,4.352435 l -0.079728,0.9028808 0.082306,-0.066275 0.07703,-0.061183 0.074453,-0.055795 0.071588,-0.04775 0.069176,-0.045019 0.066312,-0.040001 0.063773,-0.037049 0.063773,-0.03454 0.122069,-0.058525 0.063773,-0.023912 0.061035,-0.023838 0.061197,-0.023912 0.066312,-0.021255 0.063773,-0.021255 0.069013,-0.021108 -0.031786,2.2865055 -0.4596001,0.08505 0.02127,0.4381227 0.021233,0.395664 0.015993,0.3558992 0.013255,0.3187911 0.00531,0.2868049 v 0.2549069 l -0.010504,0.2230688 -0.021233,0.1992601 -0.031949,0.1752889 -0.042377,0.1513169 -0.05846,0.132793 -0.071751,0.1168302 -0.090283,0.101002 -0.1062789,0.09029 -0.1273466,0.07956 -0.146204,0.07445 -0.1486189,0.04775 -0.1248101,-0.0029 -0.1010017,-0.05033 -0.079729,-0.09045 -0.061035,-0.127346 -0.045079,-0.164735 -0.029249,-0.1965592 -0.013255,-0.2256516 -0.00531,-0.2522799 0.00531,-0.2708931 0.010553,-0.2920744 0.018694,-0.3055435 0.02127,-0.3186361 0.021233,-0.3266068 0.021269,-0.3320903 0.018532,-0.3318836 -0.5869466,0.1168298 -0.00273,0.066275 -0.021269,0.183267 -0.031786,0.2762954 -0.034525,0.3451828 -0.037227,0.3903799 -0.02651,0.4170594 -0.013292,0.4116127 0.00801,0.3903873 -0.087747,0.09286 -0.085007,0.07174 -0.077028,0.05321 -0.074289,0.03446 -0.071751,0.01852 -0.06361,0.0052 -0.061197,-0.01048 -0.055758,-0.02398 -0.053057,-0.03454 -0.045241,-0.04509 -0.045042,-0.05321 -0.037227,-0.06377 -0.034525,-0.06908 -0.029249,-0.07429 -0.02651,-0.079729 -0.021269,-0.082304 -0.061035,-0.3160972 -0.039972,-0.3213299 -0.015786,-0.331891 0.00251,-0.3453454 0.026547,-0.3611316 0.045204,-0.3771321 0.066474,-0.4008966 0.087584,-0.4276058 0.00798,-0.00295 0.013255,-0.00517 0.018532,-0.00295 0.02671,-0.00517 0.029086,-0.00517 0.034481,-0.00517 0.039972,-0.00517 0.042503,-0.00517 0.045079,-0.00517 0.04778,-0.00517 0.050481,-0.00517 0.053057,-0.00222 0.053219,-0.00295 0.055758,-0.00295 0.053057,-0.00222 h 0.055758 L 6.8513919,6.012856 6.2935308,6.1323428 6.3282183,5.983608 6.365282,5.8427998 6.4052467,5.7047369 6.4450121,5.571951 6.4875147,5.4391651 6.5325937,5.3063718 6.5803736,5.1708846 6.6283162,5.0300837 5.9058839,5.3514579 5.6535634,6.2969598 5.0693171,6.4960575 l -0.055758,0.4543224 0.042503,-0.016016 0.039802,-0.013284 0.037226,-0.013285 0.034525,-0.010701 0.034488,-0.013285 0.031824,-0.00804 0.031949,-0.010553 0.031786,-0.010701 0.029248,-0.00804 0.029248,-0.00782 0.029086,-0.00797 0.029248,-0.00804 0.029248,-0.010701 0.031949,-0.00804 0.029086,-0.00782 0.031949,-0.010701 -0.010716,0.031809 -0.018531,0.085006 -0.02651,0.1327859 -0.029247,0.1779902 -0.031786,0.223113 -0.02925,0.2601263 -0.026717,0.3002666 -0.021063,0.3345849 -0.037226,-0.087707 -0.04778,-0.085006 L 5.1994007,8.0735024 5.1356278,7.9910277 5.0639137,7.908723 4.9816066,7.8291636 4.8967652,7.7494271 4.8037398,7.669661 4.7081792,7.5926699 4.6044775,7.515642 4.4981993,7.4413079 4.3893845,7.3670254 4.2778692,7.2925732 4.1637768,7.2209845 4.0467818,7.1492482 3.9299888,7.0775119 3.8131561,7.0084325 3.6962001,6.939427 3.5794073,6.8703476 3.465275,6.801342 3.3537605,6.7348458 3.2447817,6.6685709 3.138503,6.6020745 3.0349649,6.5357998 2.939404,6.4720337 2.84642,6.4082677 2.758836,6.3445027 2.679107,6.2807367 2.607354,6.2169707 2.541042,6.1559357 2.485244,6.0921697 2.437464,6.0311346 2.39496,5.9620547 2.363011,5.8957797 2.34178,5.8292837 2.331225,5.7655917 v -0.061109 l 0.00798,-0.061183 0.015995,-0.058304 0.021067,-0.053064 0.03199,-0.053212 0.037227,-0.04775 0.042503,-0.047751 0.04778,-0.042511 0.053057,-0.037196 0.055758,-0.03454 0.061035,-0.031809 0.063775,-0.026569 0.066476,-0.021255 0.066311,-0.018672 0.071752,-0.010554 0.069012,-0.00804 0.071752,-0.00295 0.069052,0.00517 0.069011,0.00797 0.066476,0.016016 0.066312,0.021255 0.063776,0.029226 0.058334,0.03454 0.055758,0.042511 0.050482,0.04775 0.04778,0.055795 0.039964,0.063765 0.034522,0.071736 L 4.4637111,5.2260517 4.3893814,5.0985426 4.3043746,4.9817129 4.2140902,4.8754738 4.1132527,4.7826078 4.0097141,4.7001405 3.898159,4.6285518 3.783944,4.567517 3.6644117,4.5170359 3.5421381,4.4772562 3.4173685,4.4480303 3.2899813,4.4293582 3.1624717,4.4188044 H 3.035094 L 2.9075844,4.4293574 2.780197,4.4480294 2.6579643,4.4745984 2.5358951,4.5116464 2.4163621,4.5568874 2.3021069,4.6073684 2.1932916,4.6684034 2.087013,4.7374834 1.991452,4.8144674 1.901169,4.8995174 1.81874,4.9898004 1.74441,5.0880614 1.677935,5.1915993 1.624877,5.3031522 1.579837,5.419945 1.547847,5.5449226 1.526616,5.6750074 l -0.00528,0.1354871 0.00528,0.1406385 0.021231,0.1142614 0.037268,0.1142098 0.055757,0.1088591 0.069012,0.1062391 0.082307,0.106276 0.095561,0.1008368 0.1062788,0.1010067 0.1169555,0.098261 0.1273466,0.098253 0.1327867,0.098305 0.1408049,0.095523 0.1460413,0.093021 0.148782,0.09556 0.1540184,0.092821 0.1513587,0.095722 0.1567592,0.093029 0.3026368,0.1911196 0.1487827,0.095685 0.1435035,0.098135 0.1380644,0.098261 0.1327867,0.1009986 0.1220697,0.1035379 0.1142563,0.1035379 0.1035371,0.1088592 0.090283,0.1089772 0.07703,0.111516 0.066474,0.116837 0.04778,0.1169479 0.031824,0.1248152 0.013255,0.1248078 -0.00531,0.1300478 -0.021269,0.1380629 -0.034488,0.1249775 -0.045249,0.1167856 -0.053057,0.1062828 -0.063736,0.09826 -0.074329,0.08758 -0.082266,0.07973 -0.090324,0.06908 -0.098261,0.06104 -0.1035371,0.05049 -0.1117212,0.04509 -0.1167907,0.03454 -0.12481,0.02922 -0.1275105,0.02125 -0.1300862,0.0107 -0.1380641,0.0078 -0.1382278,-0.0022 -0.1433009,-0.0081 -0.1433415,-0.01328 -0.1460818,-0.02125 -0.1462049,-0.02657 -0.1486179,-0.03454 -0.1487412,-0.03719 -0.146082,-0.04524 -0.1460419,-0.05037 -0.1460409,-0.05322 -0.1435049,-0.05831 -0.1408049,-0.06377 -0.1353234,-0.06901 -0.1327871,-0.07174 -0.130087,-0.077028 -0.1249737,-0.079729 -0.80199918,0.7729142 0.30280019,0.135369 0.29482324,0.119531 0.28414615,0.106239 0.2735512,0.09028 0.262874,0.07977 0.2550197,0.06628 0.2443432,0.0558 0.2363247,0.04251 0.2258115,0.03181 0.2150932,0.02125 0.2070766,0.0107 0.1990983,0.0022 0.1885863,-0.0078 0.1779893,-0.01867 0.1700136,-0.02384 0.1618708,-0.03454 0.1540604,-0.03993 0.143505,-0.04502 0.1354863,-0.05321 0.1273874,-0.06104 0.1167913,-0.06377 0.1115566,-0.06901 0.1009612,-0.07433 0.093024,-0.07699 0.084843,-0.08231 0.077029,-0.08501 0.069176,-0.08775 0.058333,-0.08754 0.053219,-0.09028 0.045041,-0.09303 0.03727,-0.09028 0.029204,-0.09298 0.039802,0.1302101 0.045241,0.119531 0.050319,0.114092 0.058496,0.101002 0.063736,0.09028 0.071751,0.07973 0.077029,0.06362 0.084843,0.04797 0.093024,0.03181 0.1009613,0.01328 0.1088561,-0.008 0.1167921,-0.02649 0.1248094,-0.04775 0.1354871,-0.07433 0.1433419,-0.09826 0.1514816,-0.122231 0.050518,0.132785 0.055758,0.119494 0.061035,0.108851 0.063773,0.09568 0.066312,0.08231 0.069013,0.07434 0.074493,0.06118 0.074288,0.05033 0.077029,0.04251 0.082307,0.03195 0.079729,0.02125 0.085007,0.01587 0.082305,0.0052 0.085007,-0.0029 0.087542,-0.008 0.085048,-0.01852 0.087542,-0.02125 0.085007,-0.02922 0.087748,-0.03446 0.084843,-0.04251 0.08247,-0.04524 0.082266,-0.04775 0.082306,-0.0558 0.07973,-0.05573 0.07703,-0.06111 0.074329,-0.06377 0.07429,-0.06627 0.069013,-0.0665 0.066519,-0.07174 0.061035,-0.06908 0.05846,-0.07159 0.055795,-0.07174 0.050481,0.640002 0.8312478,-0.05307 -0.04795,-0.411517 -0.03706,-0.363869 L 10.075493,9.7540157 10.051523,9.4406639 10.030463,9.1325891 10.011773,8.81923 9.993244,8.481907 9.971974,8.1153286 l 0.122109,0.1752963 0.24958,0.3400243 0.124973,0.1673107 0.127345,0.1646171 0.127511,0.1620339 0.12751,0.1592959 0.130086,0.1567571 0.130252,0.1513177 0.130046,0.1513621 0.130086,0.1487422 0.130252,0.1433401 0.130045,0.1408 0.127552,0.138071 0.130046,0.135479 0.12751,0.130092 0.130086,0.12751 0.124812,0.124807 0.127509,0.119539 0.124809,0.116955 0.124974,0.114091 0.12207,0.108978 0.119532,0.106113 0.119534,0.101002 0.116791,0.09826 0.116832,0.09298 0.111516,0.09028 0.111556,0.08489 0.108978,0.07973 0.106114,0.07703 0.103703,0.07174 0.10084,0.06628 z m 0.01599,-4.0420735 -0.135364,0.00517 -0.132788,0.016016 -0.130251,0.023839 -0.127345,0.037196 -0.12751,0.045241 -0.122234,0.053064 -0.119368,0.061035 -0.119534,0.066496 -0.111719,0.074326 -0.111351,0.077035 -0.106279,0.085006 -0.101002,0.087707 -0.09826,0.087582 -0.09286,0.092859 -0.09028,0.095685 -0.08243,0.093021 -0.07961,0.095568 -0.07175,0.09556 -0.06648,0.092984 -0.06104,0.090282 -0.05576,0.087582 -0.05049,0.085006 -0.04238,0.079729 -0.03464,0.074334 -0.02908,0.069006 -0.02127,0.063765 -0.01325,0.053212 -0.0055,0.04775 0.0027,0.03978 0.01068,0.026495 0.01857,0.018598 0.02651,0.00797 h 0.127482 l 0.12481,-0.013284 0.12481,-0.021255 0.122068,-0.03454 0.122233,-0.042511 0.119533,-0.053064 0.116834,-0.058452 0.116792,-0.066275 0.111719,-0.074496 0.108816,-0.076991 0.106277,-0.084881 0.103538,-0.087707 0.09826,-0.090282 0.09556,-0.093029 0.09028,-0.09556 0.08501,-0.098261 0.07973,-0.09556 0.07703,-0.095722 0.06905,-0.09556 0.06358,-0.090283 0.0585,-0.090283 0.05322,-0.087545 0.04504,-0.079774 0.03726,-0.076991 0.03178,-0.06908 0.02397,-0.063766 0.01583,-0.055721 0.008,-0.04775 -0.0026,-0.037196 -0.008,-0.029078 -0.01853,-0.018672 z m -2.793885,-2.3344478 -0.01853,-0.06908 -0.02397,-0.061035 -0.03182,-0.058525 -0.03976,-0.050482 -0.04524,-0.04775 -0.05306,-0.042511 -0.05576,-0.037049 -0.06104,-0.03454 -0.06648,-0.029226 -0.07175,-0.023986 -0.07159,-0.021255 -0.07703,-0.018524 -0.07973,-0.016016 -0.07957,-0.013285 -0.08247,-0.00804 -0.08501,-0.00797 -0.08231,-0.00222 -0.08501,-0.00295 -0.08231,-0.00295 -0.08501,0.00295 -0.07957,0.00295 -0.07973,0.00222 -0.07703,0.00517 -0.07433,0.00517 -0.07172,0.00517 -0.06636,0.00797 -0.06374,0.00517 -0.0585,0.00517 -0.05306,0.00797 -0.047779,0.00517 -0.039928,0.00517 -0.034525,0.00222 0.010716,0.5524136 0.00531,0.5365904 0.00531,0.5337268 0.010679,0.5497199 0.058334,-0.018524 0.063769,-0.023985 0.06901,-0.029079 0.07175,-0.031956 0.07429,-0.03454 0.07703,-0.03978 0.07973,-0.045241 0.08231,-0.045093 0.170014,-0.1009987 0.08505,-0.055721 0.08754,-0.055795 0.08501,-0.061035 0.08501,-0.058525 0.08505,-0.063766 0.08227,-0.061035 0.07961,-0.063766 0.07699,-0.066275 0.07703,-0.063766 0.07175,-0.066496 0.06632,-0.063618 0.06378,-0.066496 0.0585,-0.063765 0.05319,-0.063766 0.04779,-0.061035 0.0425,-0.061035 0.03452,-0.061183 0.02908,-0.055648 0.02139,-0.055795 0.01313,-0.053212 0.0055,-0.050481 -0.0055,-0.04775"
     style="fill:#000000;fill-opacity:1;fill-rule:evenodd;stroke:none;stroke-width:0.0409078"
     id="path2256" />
</svg>
